<svg xmlns="http://www.w3.org/2000/svg" viewBox="0 0 512 512">
  <g transform="translate(0,512) scale(0.1,-0.1)" fill="#FFB400">
    <path d="M590 4510 c-19 -19 -20 -33 -20 -287 0 -148 -5 -593 -11 -990 -14 -952 0 -1276 67 -1542 54 -214 123 -340 264 -482 200 -200 414 -310 1255 -642 l380 -150 50 18 c28 9 248 96 490 192 467 185 760 321 911 422 289 192 434 433 488 811 40 278 44 523 31 1863 l-8 768 -25 19 c-24 20 -52 20 -1938 20 -1901 0 -1914 0 -1934 -20z m3784 -432 c3 -183 8 -623 11 -978 10 -1041 -17 -1334 -145 -1595 -82 -168 -196 -283 -397 -401 -184 -109 -370 -190 -950 -419 l-363 -143 -342 135 c-811 319 -1042 436 -1223 619 -163 164 -238 363 -277 734 -15 142 -17 1164 -3 1933 l7 447 1838 0 1838 0 6 -332z"></path>
    <path d="M2276 3643 c-78 -76 -228 -219 -334 -318 l-192 -180 0 -367 0 -368 805 0 805 0 2 -296 3 -295 168 157 167 157 0 299 0 298 -805 0 -805 0 0 105 0 105 805 0 805 0 0 420 0 420 -641 0 -642 0 -141 -137z m1082 -285 l3 -98 -636 0 -635 0 0 100 0 100 633 -2 632 -3 3 -97z"></path>
    <path d="M1470 2877 c-36 -34 -111 -106 -168 -159 l-102 -98 0 -375 0 -375 800 0 800 0 0 -290 c0 -280 1 -290 18 -281 11 6 85 74 165 152 l147 141 0 304 0 304 -795 0 -795 0 -2 369 -3 370 -65 -62z"></path>
  </g>
</svg>
